<svg width="95" height="21" xmlns="http://www.w3.org/2000/svg">
 <!-- Created with Method Draw - http://github.com/duopixel/Method-Draw/ -->
 <g>
  <title>Layer 1</title>
  <g id="svg_101">
   <path id="svg_1" d="m13.005001,20.570004c-2.158,0 -3.867,-0.813 -3.867,-3.671l0,-13.733c-0.982,-0.336 -1.655,-0.364 -2.047,-0.364c-1.849,0 -2.298,1.037 -2.298,2.102l0,1.794l2.887,0l0,2.55l-2.887,0l0,11.322l-3.167,0l0,-11.322l-1.626,0l0,-2.55l1.626,0l0,-1.878c0,-3.587 2.382,-4.82 5.325,-4.82c0.84,0 2.83,0.112 5.324,1.065l0.028,15.358c0,1.037 0.504,1.345 1.345,1.345l0.56,0l0,2.803l-1.203,0l0,-0.001z" fill="#C8C8C8"/>
   <path id="svg_2" d="m26.987001,8.855004c0.702,1.093 1.037,2.69 1.01,4.568c0,2.102 -0.308,3.587 -0.954,4.708c-1.065,1.737 -3.026,2.634 -5.212,2.634c-2.074,0 -3.783,-0.701 -4.793,-2.186c-0.784,-1.178 -1.121,-2.831 -1.093,-4.933c0,-1.485 0.196,-2.887 0.701,-3.923c0.952,-2.046 2.999,-3.195 5.521,-3.195c2.074,0.001 3.811,0.841 4.82,2.327zm-7.37,2.102c-0.336,0.729 -0.449,1.654 -0.477,2.719c0,1.093 0.084,1.99 0.421,2.662c0.421,0.954 1.261,1.542 2.354,1.542c1.206,0 2.188,-0.645 2.607,-1.99c0.168,-0.532 0.251,-1.261 0.251,-2.466c0,-1.037 -0.111,-1.877 -0.363,-2.438c-0.421,-1.093 -1.317,-1.597 -2.354,-1.597c-1.066,-0.001 -1.991,0.587 -2.439,1.568z" fill="#C8C8C8"/>
   <path id="svg_3" d="m43.215001,15.862004c0.223,-0.785 0.419,-1.625 0.616,-2.383c0.336,-1.093 0.561,-2.186 1.878,-6.781l3.391,0c-1.513,4.624 -3.055,9.248 -4.597,13.872l-2.774,0c-0.673,-2.13 -1.317,-4.316 -1.961,-6.474l-0.813,-2.634l-0.056,0l-0.869,2.971c-0.588,2.045 -1.205,4.063 -1.878,6.137l-2.774,0l-4.596,-13.872l3.391,0c0.393,1.289 0.756,2.606 1.121,3.924c0.504,1.709 0.896,3.447 1.429,5.156l0.113,0c0.616,-1.961 0.588,-1.934 1.177,-3.895l1.626,-5.185l2.663,0c0.7,2.242 1.4,4.54 2.073,6.81l0.673,2.354l0.167,0z" fill="#C8C8C8"/>
   <path id="svg_4" d="m63.688001,19.056004c-0.869,1.373 -2.746,1.681 -4.652,1.681c-2.663,0 -4.876,-1.288 -4.876,-3.951c0,-2.242 1.513,-3.896 4.456,-3.896l5.1,0l0,-1.989c0,-2.046 -1.036,-3.223 -4.008,-3.223c-1.373,0 -2.746,0.309 -3.866,1.345l-0.786,-0.841c1.121,-1.093 2.719,-1.653 4.681,-1.653c2.83,0 5.212,0.84 5.212,4.316l0,9.725l-1.233,0l0,-1.513l-0.028,0l0,-0.001zm-4.791,-5.128c-2.214,0 -3.56,0.925 -3.56,2.803c0,1.905 1.513,2.943 3.868,2.943c1.794,0 4.512,-0.533 4.512,-2.971l0,-2.774l-4.82,0l0,-0.001z" fill="#C8C8C8"/>
   <path id="svg_5" d="m72.283001,20.766004c-1.99,0 -3.951,-0.533 -5.464,-1.709l0.729,-0.953c1.346,1.065 3.055,1.57 4.933,1.57c1.681,0 3.922,-0.673 3.922,-2.915c0,-1.934 -1.961,-2.522 -3.867,-2.775c-2.495,-0.365 -4.905,-0.813 -4.905,-3.475c0,-2.466 2.046,-3.979 4.989,-3.979c1.99,0 3.335,0.42 4.569,1.261l-0.673,0.98c-1.093,-0.672 -2.299,-1.121 -3.812,-1.121c-2.187,0 -3.811,0.952 -3.839,2.746c0,1.878 1.85,2.186 4.008,2.494c2.242,0.336 4.764,1.065 4.764,3.924c0,2.214 -1.85,3.952 -5.354,3.952z" fill="#C8C8C8"/>
   <rect id="svg_6" height="13.901" width="1.234" fill="#C8C8C8" y="6.669004" x="80.309001"/>
   <path id="svg_7" d="m93.811001,19.056004c-0.869,1.373 -2.746,1.681 -4.652,1.681c-2.663,0 -4.875,-1.288 -4.875,-3.951c0,-2.242 1.513,-3.896 4.456,-3.896l5.101,0l0,-1.989c0,-2.046 -1.037,-3.223 -4.008,-3.223c-1.373,0 -2.746,0.309 -3.868,1.345l-0.784,-0.841c1.121,-1.093 2.718,-1.653 4.681,-1.653c2.83,0 5.212,0.84 5.212,4.316l0,9.725l-1.232,0l0,-1.513l-0.031,0l0,-0.001zm-4.791,-5.128c-2.214,0 -3.56,0.925 -3.56,2.803c0,1.905 1.513,2.943 3.868,2.943c1.794,0 4.512,-0.533 4.512,-2.971l0,-2.774l-4.82,0l0,-0.001z" fill="#C8C8C8"/>
   <circle id="svg_8" r="1.349" cy="19.237004" cx="50.137001" fill="#C8C8C8"/>
   <circle id="svg_9" r="0.781" cy="3.477004" cx="80.946001" fill="#C8C8C8"/>
  </g>
 </g>
</svg>